<?xml version="1.0" encoding="UTF-8"?>
<svg id="Layer_2" data-name="Layer 2" xmlns="http://www.w3.org/2000/svg" viewBox="0 0 995.58 246.2">
  <defs>
    <style>
      .cls-1 {
        fill: #b388ff;
      }

      .cls-2 {
        fill: #ff1493;
      }

      .cls-3 {
        fill: #ffdc00;
      }
    </style>
  </defs>
  <g id="Layer_1-2" data-name="Layer 1">
    <g>
      <g>
        <path class="cls-2" d="M208.14,35.57c-28.88-22.06-71.9-14.48-96.1,16.95-28.88-22.06-71.9-14.48-96.1,16.95-24.2,31.42-20.41,74.78,8.47,96.84l104.58,79.9,87.63-113.79c24.2-31.42,20.41-74.78-8.47-96.84Z"/>
        <path class="cls-2" d="M208.14,35.57c-28.88-22.06-71.9-14.48-96.1,16.95-28.88-22.06-71.9-14.48-96.1,16.95-24.2,31.42-20.41,74.78,8.47,96.84l104.58,79.9,87.63-113.79c24.2-31.42,20.41-74.78-8.47-96.84Z"/>
      </g>
      <g>
        <path class="cls-3" d="M68.7,115.67c-.87-9.98,8.87-16.13,22.11-18.47,14.24-2.51,22.22,3.48,23.13,13.91.72,8.18-2.83,16.66-1.98,26.42.39,4.48,1.69,7.67,3.64,9.37-2.42,3.27-6.43,5.23-10.22,5.9-5.01.88-8.52-.55-10.78-3.11-2.9,4.27-7.54,6.79-12.99,7.75-8.12,1.43-15.48-2.62-16.25-11.48-1.13-12.89,9.85-20.41,21.53-22.47,2.67-.47,5.48-.62,8.09-.52.05-.69-.02-1.48-.07-2.15-.23-2.58-1.99-4.66-6.44-3.87-4,.71-8.24,3.96-9.65,7.17-5.12.9-9.68-3.53-10.12-8.46ZM93.37,131.7c-1.71-.15-3.29-.1-4.62.13-4.67.82-6.79,3.7-6.59,6.06.13,1.46,1.54,2.12,3.32,1.81,3.67-.65,6.33-3.85,7.89-7.99Z"/>
        <path class="cls-3" d="M141.35,141.79c-1.85,3.4-7.05,5.91-12.06,6.79-9.34,1.65-13.9-3.92-14.58-11.66-1.11-12.67,6.74-33.97,5.25-51.01-.43-4.93-2.61-9.22-4.36-11.07,2.92-4.04,7.49-6.1,11.6-6.83,9.34-1.65,15.04,4.06,15.94,14.38,1.35,15.47-6.62,39.19-5.63,50.51.28,3.25,1.18,7.08,3.83,8.89Z"/>
        <path class="cls-3" d="M167.27,137.22c-1.85,3.4-7.05,5.91-12.06,6.79-9.34,1.65-13.9-3.92-14.58-11.66-1.11-12.67,6.74-33.97,5.25-51.01-.43-4.93-2.61-9.22-4.36-11.07,2.92-4.04,7.49-6.1,11.6-6.83,9.34-1.65,15.04,4.06,15.94,14.38,1.35,15.47-6.62,39.19-5.63,50.51.28,3.25,1.18,7.08,3.83,8.89Z"/>
      </g>
      <g>
        <path class="cls-1" d="M307.76,55.99c-15.34,1.34-27.82,14.71-27.82,30.05v35.59c0,2.25-1.43,3.81-3.27,3.97s-3.27-1.15-3.27-3.4v-35.59c0-15.34-12.48-26.52-27.82-25.18-15.54,1.36-27.82,14.71-27.82,30.05v100.43c0,13.09,10.64,22.39,23.52,21.26,4.3-.38,9.2-1.62,12.89-4.6-4.3-4.12-7.36-11.63-7.36-19.2v-50.32c0-1.84,1.43-3.4,3.07-3.54,1.84-.16,3.27,1.15,3.27,2.99v48.27c0,18.61,13.09,24.22,23.52,23.3s23.52-8.81,23.52-27.42v-48.27c0-1.84,1.43-3.4,3.27-3.56,1.64-.14,3.07,1.16,3.07,3v50.32c0,7.57-3.07,15.61-7.36,20.48,3.68,2.34,8.59,2.73,12.89,2.35,12.89-1.13,23.52-12.28,23.52-25.37v-100.43c0-15.34-12.27-26.54-27.82-25.18Z"/>
        <path class="cls-1" d="M398.98,48.01c-28.64,2.51-50.32,26.9-50.32,55.54v76.7c0,13.29,10.02,22.64,23.11,21.5s23.73-12.3,23.73-25.6v-38.86c0-1.84,1.43-3.6,3.48-3.78s3.48,1.33,3.48,3.17v38.86c0,13.29,10.43,22.61,23.73,21.45s23.11-12.25,23.11-25.54v-76.7c0-28.64-21.68-49.24-50.31-46.73ZM402.46,117.25c0,1.84-1.43,3.6-3.48,3.78s-3.48-1.33-3.48-3.17v-35.38c0-1.84,1.43-3.4,3.48-3.58s3.48,1.13,3.48,2.97v35.38Z"/>
        <path class="cls-1" d="M536.21,36l-57.6,5.04c-12.88,1.13-23.77,12.23-24.01,25.14-.25,13.55,10.06,23.13,23.52,21.95l2.44-.21c1.7-.15,3.08,1.11,3.08,2.81v77.22c0,12.88,10.16,22.88,23.04,21.99,13.53-.93,24.01-12.16,24.01-25.62v-77.71c0-1.7,1.38-3.2,3.08-3.35l1.95-.17c12.88-1.13,23.77-12.24,24.01-25.14.25-13.55-10.06-23.13-23.52-21.95Z"/>
        <path class="cls-1" d="M616.18,29.01c-28.23,2.47-50.32,26.9-50.32,55.54v49.09c0,28.64,22.09,49.2,50.32,46.73s50.31-26.49,50.31-54.72v-8.39c0-4.91-1.64-9.47-4.5-13.11-5.11,4.95-11.66,7.97-18.82,8.6s-13.7-1.26-19.02-5.29c-2.66,4.12-4.5,8.98-4.5,13.89v24.54c0,1.84-1.43,3.4-3.48,3.58s-3.48-1.13-3.48-2.97V63.47c0-1.84,1.43-3.4,3.48-3.58s3.48,1.13,3.48,2.97v23.11c0,13.09,10.43,22.61,23.52,21.46s23.32-12.47,23.32-25.56v-6.14c0-28.64-22.09-49.2-50.31-46.73Z"/>
        <path class="cls-1" d="M756.69,16.72c-13.29,1.16-23.73,12.3-23.73,25.6v36.82c0,1.84-1.43,3.4-3.48,3.58s-3.48-1.13-3.48-2.97v-36.82c0-13.29-10.43-22.61-23.73-21.45s-23.52,12.28-23.52,25.58v104.31c0,13.29,10.43,22.61,23.52,21.46s23.73-12.3,23.73-25.6v-36.82c0-1.84,1.43-3.4,3.48-3.58s3.48,1.13,3.48,2.97v36.82c0,13.29,10.43,22.61,23.73,21.45s23.52-12.28,23.52-25.58V38.18c0-13.29-10.43-22.61-23.52-21.46Z"/>
        <path class="cls-1" d="M834.82,57.74l29.66-2.59c13.09-1.15,23.11-12.66,23.11-26.36s-10.02-22.64-23.11-21.5l-47.04,4.12c-12.89,1.13-23.32,12.27-23.32,25.36v104.72c0,13.09,10.43,22.4,23.32,21.28l47.04-4.12c13.09-1.15,23.11-12.25,23.11-25.54s-10.02-22.85-23.11-21.7l-29.66,2.59c-1.84.16-3.27-1.15-3.27-2.99,0-1.64,1.43-3.19,3.27-3.35l18-1.57c12.27-1.07,22.09-11.14,22.09-24.02s-9.82-20.62-22.09-19.54l-18,1.57c-1.84.16-3.27-1.15-3.27-2.78s1.43-3.4,3.27-3.56Z"/>
        <path class="cls-1" d="M971.85,78.27c-16.98,1.49-29.66-10.5-29.66-26.86v-13.09c0-1.84,1.43-3.4,3.07-3.54s3.07,1.16,3.07,3v13.09c0,13.91,10.64,23,23.52,21.87s23.73-12.3,23.73-26.21c0-28.43-22.09-48.79-50.11-46.34s-50.52,26.71-50.52,55.14c0,9.2,2.66,17.97,7.16,25.35,4.09-3.63,11.45-6.93,16.98-7.42,16.77-1.47,29.25,10.53,29.25,27.1v21.48c0,2.25-1.43,4.01-3.07,4.15s-3.07-1.37-3.07-3.62v-21.48c0-12.89-10.64-23.2-23.11-22.11-13.5,1.18-24.14,11.52-24.14,27.06,0,27.82,22.29,48.16,50.52,45.69s50.11-26.68,50.11-55.11c0-9.2-2.45-17.99-6.95-25.37-4.5,3.46-11.45,6.73-16.77,7.19Z"/>
      </g>
      <g>
        <path class="cls-3" d="M545.08,82.27c.7-.63,1.37-1.3,2-2,.7-.63,1.37-1.3,2-2,.7-.63,1.37-1.3,2-2,5.15-4.65,8.52-11.21,8.65-18.32.25-13.55-10.06-23.13-23.52-21.95l-57.6,5.04c-6.75.59-12.95,3.92-17.36,8.82-.7.63-1.37,1.3-2,2-.7.63-1.37,1.3-2,2-.7.63-1.37,1.3-2,2-.7.63-1.37,1.3-2,2-.7.63-1.37,1.3-2,2-.7.63-1.37,1.3-2,2-.7.63-1.37,1.3-2,2-.7.63-1.37,1.3-2,2-.7.63-1.37,1.3-2,2-.34.3-.66.61-.98.93-8.62-14.07-24.45-22.43-43.3-20.78-13.77,1.2-25.92,7.48-34.83,16.84-.68.65-1.35,1.32-2,2-.68.65-1.35,1.32-2,2-.68.65-1.35,1.32-2,2-.68.65-1.35,1.32-2,2-.68.65-1.35,1.32-2,2-.68.65-1.35,1.32-2,2-.68.65-1.35,1.32-2,2-.68.65-1.35,1.32-2,2-.68.65-1.35,1.32-2,2-4.2,3.98-7.77,8.61-10.57,13.71v-15.4c0-15.34-12.27-26.54-27.82-25.18-7.75.68-14.76,4.43-19.81,9.94-.7.64-1.36,1.3-2,2-.7.64-1.36,1.3-2,2-.7.64-1.36,1.3-2,2-.7.64-1.36,1.3-2,2-.7.64-1.36,1.3-2,2-.7.64-1.36,1.3-2,2-.7.64-1.36,1.3-2,2-.39.35-.76.72-1.13,1.09-2.62-12.37-13.83-20.76-27.24-19.59-7.83.69-14.83,4.41-19.85,9.9-.7.64-1.36,1.3-2,2-.7.64-1.36,1.3-2,2-.7.64-1.36,1.3-2,2-.7.64-1.36,1.3-2,2-.7.64-1.36,1.3-2,2-.7.64-1.36,1.3-2,2-.7.64-1.36,1.3-2,2-.7.64-1.36,1.3-2,2-.7.64-1.36,1.3-2,2-6.12,5.58-9.97,13.55-9.97,22.14v100.43c0,13.09,10.64,22.39,23.52,21.26,4.3-.38,9.2-1.62,12.89-4.6-.13-.13-.26-.27-.39-.41.84-.47,1.65-.99,2.39-1.59-.13-.13-.26-.27-.39-.41.84-.47,1.65-.99,2.39-1.59-.13-.13-.26-.27-.39-.41.32-.18.64-.35.95-.55,4.77,5.28,11.81,7,17.94,6.46,5.71-.5,12.21-3.09,16.93-8.39.7-.62,1.36-1.29,2-2,.7-.62,1.36-1.29,2-2,.7-.62,1.36-1.29,2-2,.7-.62,1.36-1.29,2-2,.7-.62,1.36-1.29,2-2,.7-.62,1.36-1.29,2-2,.17-.15.33-.3.49-.45-.99,5.9-3.58,11.6-6.92,15.39,3.68,2.34,8.59,2.73,12.89,2.35,6.6-.58,12.61-3.79,16.9-8.55.7-.63,1.37-1.3,2-2,.7-.63,1.37-1.3,2-2,.7-.63,1.37-1.3,2-2,.7-.63,1.37-1.3,2-2,.7-.63,1.37-1.3,2-2,.7-.63,1.37-1.3,2-2,.7-.63,1.37-1.3,2-2,.7-.63,1.37-1.3,2-2,.7-.63,1.37-1.3,2-2,.59-.53,1.16-1.09,1.71-1.67v1.49c0,13.29,10.02,22.64,23.11,21.5,6.79-.59,12.84-3.8,17.13-8.56.7-.63,1.37-1.3,2-2,.7-.63,1.37-1.3,2-2,.7-.63,1.37-1.3,2-2,.7-.63,1.37-1.3,2-2,.7-.63,1.37-1.3,2-2,.7-.63,1.37-1.3,2-2,.65-.58,1.27-1.2,1.86-1.84,1.79,11.22,11.44,18.69,23.43,17.64,6.6-.58,12.42-3.69,16.56-8.33.7-.63,1.37-1.3,2-2,.7-.63,1.37-1.3,2-2,.7-.63,1.37-1.3,2-2,.7-.63,1.37-1.3,2-2,.7-.63,1.37-1.3,2-2,.7-.63,1.37-1.3,2-2,.7-.63,1.37-1.3,2-2,.7-.63,1.37-1.3,2-2,.7-.63,1.37-1.3,2-2,5.26-4.72,8.55-11.6,8.55-19.21v-64.17c2.71.82,5.68,1.14,8.83.86l2.44-.21c1.7-.15,3.08,1.11,3.08,2.81v77.22c0,12.88,10.16,22.88,23.04,21.99,6.95-.48,13.08-3.67,17.41-8.49.7-.63,1.37-1.3,2-2,.7-.63,1.37-1.3,2-2,.7-.63,1.37-1.3,2-2,.7-.63,1.37-1.3,2-2,.7-.63,1.37-1.3,2-2,.7-.63,1.37-1.3,2-2,.7-.63,1.37-1.3,2-2,.7-.63,1.37-1.3,2-2,.7-.63,1.37-1.3,2-2,5.29-4.72,8.59-11.57,8.59-19.13v-67.7c.84-.73,1.64-1.52,2.39-2.35.7-.63,1.37-1.3,2-2,.7-.63,1.37-1.3,2-2,.7-.63,1.37-1.3,2-2,.7-.63,1.37-1.3,2-2,.7-.63,1.37-1.3,2-2,.7-.63,1.37-1.3,2-2Z"/>
        <path class="cls-3" d="M975.47,77.6c.47-.45.92-.91,1.35-1.39.7-.63,1.37-1.3,2-2,.7-.63,1.37-1.3,2-2,.7-.63,1.37-1.3,2-2,.7-.63,1.37-1.3,2-2,.7-.63,1.37-1.3,2-2,5.34-4.79,8.76-11.79,8.76-19.67,0-28.43-22.09-48.79-50.11-46.34-13.76,1.2-26.09,7.59-35.14,17.1-.68.65-1.35,1.32-2,2-.68.65-1.35,1.32-2,2-.68.65-1.35,1.32-2,2-.68.65-1.35,1.32-2,2-.68.65-1.35,1.32-2,2-.68.65-1.35,1.32-2,2-.68.65-1.35,1.32-2,2-.68.65-1.35,1.32-2,2-.68.65-1.35,1.32-2,2-10.69,10.17-17.38,24.48-17.38,40.05,0,9.2,2.66,17.97,7.16,25.35,2.32,3.77,2.51,3.52,1.88,4.22-.7.62.3-.34-.33.36-2.67,2.37-4.84,5.33-6.35,8.78-3.63-2.09-8.02-3.09-12.83-2.67l-9.8.86c.06-.06.11-.13.17-.19.71-.63,1.37-1.3,2-2,.71-.63,1.37-1.3,2-2,.71-.63,1.37-1.3,2-2,.71-.63,1.37-1.3,2-2,.71-.63,1.37-1.3,2-2,.71-.63,1.37-1.3,2-2,4.93-4.37,8.06-10.74,8.06-18.01,0-8.5-4.56-14.99-11.35-17.92.4-.4.79-.8,1.17-1.22.7-.63,1.37-1.3,2-2,.7-.63,1.37-1.3,2-2,.7-.63,1.37-1.3,2-2,.7-.63,1.37-1.3,2-2,.7-.63,1.37-1.3,2-2,.7-.63,1.37-1.3,2-2,.7-.63,1.37-1.3,2-2,5.44-4.88,8.86-12.12,8.86-20.12,0-13.29-10.02-22.64-23.11-21.5l-47.04,4.12c-6.57.57-12.49,3.75-16.73,8.46-.7.63-1.37,1.3-2,2-.7.63-1.37,1.3-2,2-.7.63-1.37,1.3-2,2-.7.63-1.37,1.3-2,2-.7.63-1.37,1.3-2,2-.7.63-1.37,1.3-2,2-.7.63-1.37,1.3-2,2-.7.63-1.37,1.3-2,2-.7.63-1.37,1.3-2,2-.89.8-1.72,1.65-2.49,2.56v-2.24c0-13.29-10.43-22.61-23.52-21.46-6.79.59-12.84,3.8-17.12,8.56-.7.63-1.37,1.3-2,2-.7.63-1.37,1.3-2,2-.7.63-1.37,1.3-2,2-.7.63-1.37,1.3-2,2-.7.63-1.37,1.3-2,2-.7.63-1.37,1.3-2,2-.65.58-1.27,1.2-1.86,1.84-1.79-11.22-11.44-18.69-23.43-17.64-6.67.58-12.65,3.77-16.91,8.5-.7.63-1.37,1.3-2,2-.7.63-1.37,1.3-2,2-.7.63-1.37,1.3-2,2-.7.63-1.37,1.3-2,2-.7.63-1.37,1.3-2,2-.7.63-1.37,1.3-2,2-.7.63-1.37,1.3-2,2-.7.63-1.37,1.3-2,2-.7.63-1.37,1.3-2,2-2.14,1.92-3.96,4.19-5.37,6.71-7.84-16.97-25.19-27.49-45.82-25.68-13.62,1.19-25.79,7.5-34.76,16.92-.68.65-1.35,1.32-2,2-.68.65-1.35,1.32-2,2-.68.65-1.35,1.32-2,2-.68.65-1.35,1.32-2,2-.68.65-1.35,1.32-2,2-.68.65-1.35,1.32-2,2-.68.65-1.35,1.32-2,2-.68.65-1.35,1.32-2,2-.68.65-1.35,1.32-2,2-10.8,10.26-17.55,24.79-17.55,40.61v49.09c0,28.64,22.09,49.2,50.32,46.73,13.79-1.21,26.11-7.57,35.11-17.04.68-.65,1.35-1.32,2-2,.68-.65,1.35-1.32,2-2,.68-.65,1.35-1.32,2-2,.68-.65,1.35-1.32,2-2,.68-.65,1.35-1.32,2-2,.68-.65,1.35-1.32,2-2,.68-.65,1.35-1.32,2-2,.68-.65,1.35-1.32,2-2,.68-.65,1.35-1.32,2-2,3.68-3.5,6.87-7.49,9.47-11.85v17.89c0,13.29,10.43,22.61,23.52,21.46,6.79-.59,12.84-3.8,17.13-8.56.7-.63,1.37-1.3,2-2,.7-.63,1.37-1.3,2-2,.7-.63,1.37-1.3,2-2,.7-.63,1.37-1.3,2-2,.7-.63,1.37-1.3,2-2,.7-.63,1.37-1.3,2-2,.65-.58,1.27-1.2,1.86-1.84,1.79,11.22,11.44,18.69,23.43,17.64,6.67-.58,12.65-3.77,16.91-8.5.7-.63,1.37-1.3,2-2,.7-.63,1.37-1.3,2-2,.7-.63,1.37-1.3,2-2,.7-.63,1.37-1.3,2-2,.7-.63,1.37-1.3,2-2,.7-.63,1.37-1.3,2-2,.7-.63,1.37-1.3,2-2,.7-.63,1.37-1.3,2-2,.7-.63,1.37-1.3,2-2,.9-.8,1.74-1.67,2.52-2.59v2.5c0,13.09,10.43,22.4,23.32,21.28l47.04-4.12c6.6-.58,12.42-3.69,16.56-8.33.7-.63,1.37-1.3,2-2,.7-.63,1.37-1.3,2-2,.7-.63,1.37-1.3,2-2,.7-.63,1.37-1.3,2-2,.7-.63,1.37-1.3,2-2,.7-.63,1.37-1.3,2-2,.7-.63,1.37-1.3,2-2,.7-.63,1.37-1.3,2-2,.7-.63,1.37-1.3,2-2,.83-.74,1.6-1.54,2.33-2.38,8.59,14.49,24.98,23.3,44.1,21.63,13.57-1.19,25.74-7.49,34.7-16.9.68-.65,1.35-1.32,2-2,.68-.65,1.35-1.32,2-2,.68-.65,1.35-1.32,2-2,.68-.65,1.35-1.32,2-2,.68-.65,1.35-1.32,2-2,.68-.65,1.35-1.32,2-2,.68-.65,1.35-1.32,2-2,.68-.65,1.35-1.32,2-2,.68-.65,1.35-1.32,2-2,10.7-10.17,17.41-24.55,17.41-40.21,0-9.2-2.45-17.99-6.95-25.37-3.53,2.72-8.58,5.31-13.16,6.53Z"/>
      </g>
      <path d="M307.76,55.99c-15.34,1.34-27.82,14.71-27.82,30.05v35.59c0,2.25-1.43,3.81-3.27,3.97s-3.27-1.15-3.27-3.4v-35.59c0-15.34-12.48-26.52-27.82-25.18-15.54,1.36-27.82,14.71-27.82,30.05v100.43c0,13.09,10.64,22.39,23.52,21.26,4.3-.38,9.2-1.62,12.89-4.6-4.3-4.12-7.36-11.63-7.36-19.2v-50.32c0-1.84,1.43-3.4,3.07-3.54,1.84-.16,3.27,1.15,3.27,2.99v48.27c0,18.61,13.09,24.22,23.52,23.3s23.52-8.81,23.52-27.42v-48.27c0-1.84,1.43-3.4,3.27-3.56,1.64-.14,3.07,1.16,3.07,3v50.32c0,7.57-3.07,15.61-7.36,20.48,3.68,2.34,8.59,2.73,12.89,2.35,12.89-1.13,23.52-12.28,23.52-25.37v-100.43c0-15.34-12.27-26.54-27.82-25.18Z"/>
      <path d="M398.98,48.01c-28.64,2.51-50.32,26.9-50.32,55.54v76.7c0,13.29,10.02,22.64,23.11,21.5s23.73-12.3,23.73-25.6v-38.86c0-1.84,1.43-3.6,3.48-3.78s3.48,1.33,3.48,3.17v38.86c0,13.29,10.43,22.61,23.73,21.45s23.11-12.25,23.11-25.54v-76.7c0-28.64-21.68-49.24-50.31-46.73ZM402.46,117.25c0,1.84-1.43,3.6-3.48,3.78s-3.48-1.33-3.48-3.17v-35.38c0-1.84,1.43-3.4,3.48-3.58s3.48,1.13,3.48,2.97v35.38Z"/>
      <path d="M536.21,36l-57.6,5.04c-12.88,1.13-23.77,12.23-24.01,25.14-.25,13.55,10.06,23.13,23.52,21.95l2.44-.21c1.7-.15,3.08,1.11,3.08,2.81v77.22c0,12.88,10.16,22.88,23.04,21.99,13.53-.93,24.01-12.16,24.01-25.62v-77.71c0-1.7,1.38-3.2,3.08-3.35l1.95-.17c12.88-1.13,23.77-12.24,24.01-25.14.25-13.55-10.06-23.13-23.52-21.95Z"/>
      <path d="M616.18,29.01c-28.23,2.47-50.32,26.9-50.32,55.54v49.09c0,28.64,22.09,49.2,50.32,46.73s50.31-26.49,50.31-54.72v-8.39c0-4.91-1.64-9.47-4.5-13.11-5.11,4.95-11.66,7.97-18.82,8.6s-13.7-1.26-19.02-5.29c-2.66,4.12-4.5,8.98-4.5,13.89v24.54c0,1.84-1.43,3.4-3.48,3.58s-3.48-1.13-3.48-2.97V63.47c0-1.84,1.43-3.4,3.48-3.58s3.48,1.13,3.48,2.97v23.11c0,13.09,10.43,22.61,23.52,21.46s23.32-12.47,23.32-25.56v-6.14c0-28.64-22.09-49.2-50.31-46.73Z"/>
      <path d="M756.69,16.72c-13.29,1.16-23.73,12.3-23.73,25.6v36.82c0,1.84-1.43,3.4-3.48,3.58s-3.48-1.13-3.48-2.97v-36.82c0-13.29-10.43-22.61-23.73-21.45s-23.52,12.28-23.52,25.58v104.31c0,13.29,10.43,22.61,23.52,21.46s23.73-12.3,23.73-25.6v-36.82c0-1.84,1.43-3.4,3.48-3.58s3.48,1.13,3.48,2.97v36.82c0,13.29,10.43,22.61,23.73,21.45s23.52-12.28,23.52-25.58V38.18c0-13.29-10.43-22.61-23.52-21.46Z"/>
      <path d="M834.82,57.74l29.66-2.59c13.09-1.15,23.11-12.66,23.11-26.36s-10.02-22.64-23.11-21.5l-47.04,4.12c-12.89,1.13-23.32,12.27-23.32,25.36v104.72c0,13.09,10.43,22.4,23.32,21.28l47.04-4.12c13.09-1.15,23.11-12.25,23.11-25.54s-10.02-22.85-23.11-21.7l-29.66,2.59c-1.84.16-3.27-1.15-3.27-2.99,0-1.64,1.43-3.19,3.27-3.35l18-1.57c12.27-1.07,22.09-11.14,22.09-24.02s-9.82-20.62-22.09-19.54l-18,1.57c-1.84.16-3.27-1.15-3.27-2.78s1.43-3.4,3.27-3.56Z"/>
      <path d="M971.85,78.27c-16.98,1.49-29.66-10.5-29.66-26.86v-13.09c0-1.84,1.43-3.4,3.07-3.54s3.07,1.16,3.07,3v13.09c0,13.91,10.64,23,23.52,21.87s23.73-12.3,23.73-26.21c0-28.43-22.09-48.79-50.11-46.34s-50.52,26.71-50.52,55.14c0,9.2,2.66,17.97,7.16,25.35,4.09-3.63,11.45-6.93,16.98-7.42,16.77-1.47,29.25,10.53,29.25,27.1v21.48c0,2.25-1.43,4.01-3.07,4.15s-3.07-1.37-3.07-3.62v-21.48c0-12.89-10.64-23.2-23.11-22.11-13.5,1.18-24.14,11.52-24.14,27.06,0,27.82,22.29,48.16,50.52,45.69s50.11-26.68,50.11-55.11c0-9.2-2.45-17.99-6.95-25.37-4.5,3.46-11.45,6.73-16.77,7.19Z"/>
    </g>
  </g>
</svg>